<svg width="258" height="199" viewBox="0 0 258 199" fill="none" xmlns="http://www.w3.org/2000/svg" class="w-[6.5rem] lg:w-[16.125rem] h-auto !w-[5.26rem] lg:!w-[12.5625rem]"><path d="M235.739 11.9139C213.925 -2.47317 176.867 15.2298 152.969 51.4459C144.822 63.7807 139.993 77.1741 137.767 89.8654C130.399 76.6449 118.99 63.4459 103.68 53.7141C67.0546 30.4378 25.999 29.4333 11.9753 51.4783C-2.04841 73.5233 16.2861 110.269 52.912 133.545C66.4063 142.121 81.1431 146.625 94.8427 148.191C92.5522 155.741 92.8548 164.123 96.3445 171.9C104.005 188.987 124.079 196.634 141.171 188.976C145.211 187.172 148.712 184.667 151.618 181.675C157.604 186.978 165.48 190.208 174.101 190.208C192.836 190.208 208.026 175.021 208.026 156.292C208.026 147.781 204.882 140.004 199.696 134.042C211.559 127.01 223.163 116.879 231.968 103.54C255.867 67.3235 257.563 26.3009 235.75 11.9139H235.739Z" fill="#5CC9C5"></path><mask id="mask0_549_5639" style="mask-type:luminance" maskUnits="userSpaceOnUse" x="7" y="6" width="245" height="186"><path d="M235.739 11.9139C213.925 -2.47317 176.867 15.2298 152.969 51.4459C144.822 63.7807 139.993 77.1741 137.767 89.8654C130.399 76.6449 118.99 63.4459 103.68 53.7141C67.0546 30.4378 25.999 29.4333 11.9753 51.4783C-2.04841 73.5233 16.2861 110.269 52.912 133.545C66.4063 142.121 81.1431 146.625 94.8427 148.191C92.5522 155.741 92.8548 164.123 96.3445 171.9C104.005 188.987 124.079 196.634 141.171 188.976C145.211 187.172 148.712 184.667 151.618 181.675C157.604 186.978 165.48 190.208 174.101 190.208C192.836 190.208 208.026 175.021 208.026 156.292C208.026 147.781 204.882 140.004 199.696 134.042C211.559 127.01 223.163 116.879 231.968 103.54C255.867 67.3235 257.563 26.3009 235.75 11.9139H235.739Z" fill="white"></path></mask><g mask="url(#mask0_549_5639)"><path d="M166.938 11.9139C177.429 11.9139 185.932 3.41343 185.932 -7.07444C185.932 -17.5623 177.429 -26.0627 166.938 -26.0627C156.448 -26.0627 147.945 -17.5623 147.945 -7.07444C147.945 3.41343 156.448 11.9139 166.938 11.9139Z" fill="#006AFF"></path><path d="M112.237 40.0616C122.728 40.0616 131.242 31.5611 131.242 21.0733C131.242 10.5854 122.739 2.08496 112.237 2.08496C101.736 2.08496 93.2439 10.5854 93.2439 21.0733C93.2439 31.5611 101.747 40.0616 112.237 40.0616Z" fill="#006AFF"></path><path d="M57.5471 68.2093C68.0378 68.2093 76.5407 59.7089 76.5407 49.221C76.5407 38.7331 68.0378 30.2327 57.5471 30.2327C47.0563 30.2327 38.5535 38.7331 38.5535 49.221C38.5535 59.7089 47.0563 68.2093 57.5471 68.2093Z" fill="#006AFF"></path><path d="M2.8351 96.3569C13.3259 96.3569 21.8287 87.8564 21.8287 77.3686C21.8287 66.8807 13.3259 58.3802 2.8351 58.3802C-7.65568 58.3802 -16.1584 66.8807 -16.1584 77.3686C-16.1584 87.8564 -7.65568 96.3569 2.8351 96.3569Z" fill="#006AFF"></path><path d="M67.1842 14.9383C77.675 14.9383 86.1778 6.43785 86.1778 -4.05001C86.1778 -14.5379 77.675 -23.0383 67.1842 -23.0383C56.6934 -23.0383 48.1907 -14.5379 48.1907 -4.05001C48.1907 6.43785 56.6934 14.9383 67.1842 14.9383Z" fill="#006AFF"></path><path d="M12.4724 43.0859C22.9631 43.0859 31.4659 34.5854 31.4659 24.0976C31.4659 13.6097 22.9631 5.10925 12.4724 5.10925C1.9816 5.10925 -6.52124 13.6097 -6.52124 24.0976C-6.52124 34.5854 1.9816 43.0859 12.4724 43.0859Z" fill="#006AFF"></path><path d="M206.255 88.2885C216.745 88.2885 225.248 79.7881 225.248 69.3002C225.248 58.8123 216.745 50.3119 206.255 50.3119C195.764 50.3119 187.261 58.8123 187.261 69.3002C187.261 79.7881 195.764 88.2885 206.255 88.2885Z" fill="#006AFF"></path><path d="M151.553 116.436C162.044 116.436 170.547 107.936 170.547 97.4478C170.547 86.9599 162.044 78.4595 151.553 78.4595C141.063 78.4595 132.56 86.9599 132.56 97.4478C132.56 107.936 141.063 116.436 151.553 116.436Z" fill="#006AFF"></path><path d="M215.892 35.0174C226.383 35.0174 234.885 26.5169 234.885 16.0291C234.885 5.54122 226.383 -2.95923 215.892 -2.95923C205.401 -2.95923 196.898 5.54122 196.898 16.0291C196.898 26.5169 205.401 35.0174 215.892 35.0174Z" fill="#006AFF"></path><path d="M161.191 63.1651C171.681 63.1651 180.184 54.6647 180.184 44.1768C180.184 33.6889 171.681 25.1885 161.191 25.1885C150.7 25.1885 142.197 33.6889 142.197 44.1768C142.197 54.6647 150.7 63.1651 161.191 63.1651Z" fill="#006AFF"></path><path d="M106.5 91.302C116.991 91.302 125.494 82.8015 125.494 72.3137C125.494 61.8258 116.991 53.3253 106.5 53.3253C96.0096 53.3253 87.5068 61.8258 87.5068 72.3137C87.5068 82.8015 96.0096 91.302 106.5 91.302Z" fill="#006AFF"></path><path d="M51.7992 119.45C62.29 119.45 70.7928 110.949 70.7928 100.461C70.7928 89.9735 62.29 81.473 51.7992 81.473C41.3084 81.473 32.8057 89.9735 32.8057 100.461C32.8057 110.949 41.3084 119.45 51.7992 119.45Z" fill="#006AFF"></path><path d="M206.525 88.6989C217.015 88.6989 225.518 80.1985 225.518 69.7106C225.518 59.2228 217.015 50.7223 206.525 50.7223C196.034 50.7223 187.531 59.2228 187.531 69.7106C187.531 80.1985 196.034 88.6989 206.525 88.6989Z" fill="#006AFF"></path><path d="M151.824 116.847C162.314 116.847 170.828 108.346 170.828 97.8583C170.828 87.3705 162.325 78.87 151.824 78.87C141.322 78.87 132.83 87.3705 132.83 97.8583C132.83 108.346 141.333 116.847 151.824 116.847Z" fill="#006AFF"></path><path d="M97.1333 144.994C107.624 144.994 116.127 136.494 116.127 126.006C116.127 115.518 107.624 107.018 97.1333 107.018C86.6425 107.018 78.1396 115.518 78.1396 126.006C78.1396 136.494 86.6425 144.994 97.1333 144.994Z" fill="#006AFF"></path><path d="M42.4213 173.142C52.9121 173.142 61.4149 164.641 61.4149 154.154C61.4149 143.666 52.9121 135.165 42.4213 135.165C31.9306 135.165 23.4277 143.666 23.4277 154.154C23.4277 164.641 31.9306 173.142 42.4213 173.142Z" fill="#006AFF"></path><path d="M106.77 91.7232C117.261 91.7232 125.764 83.2227 125.764 72.7349C125.764 62.247 117.261 53.7466 106.77 53.7466C96.2796 53.7466 87.7769 62.247 87.7769 72.7349C87.7769 83.2227 96.2796 91.7232 106.77 91.7232Z" fill="#006AFF"></path><path d="M52.0585 119.871C62.5493 119.871 71.0521 111.37 71.0521 100.883C71.0521 90.3947 62.5493 81.8943 52.0585 81.8943C41.5677 81.8943 33.0649 90.3947 33.0649 100.883C33.0649 111.37 41.5677 119.871 52.0585 119.871Z" fill="#006AFF"></path><path d="M245.841 165.073C256.332 165.073 264.834 156.573 264.834 146.085C264.834 135.597 256.332 127.097 245.841 127.097C235.35 127.097 226.847 135.597 226.847 146.085C226.847 156.573 235.35 165.073 245.841 165.073Z" fill="#006AFF"></path><path d="M191.14 193.21C201.63 193.21 210.133 184.71 210.133 174.222C210.133 163.734 201.63 155.234 191.14 155.234C180.649 155.234 172.146 163.734 172.146 174.222C172.146 184.71 180.649 193.21 191.14 193.21Z" fill="#006AFF"></path><path d="M255.478 111.802C265.969 111.802 274.472 103.302 274.472 92.8141C274.472 82.3263 265.969 73.8258 255.478 73.8258C244.987 73.8258 236.484 82.3263 236.484 92.8141C236.484 103.302 244.987 111.802 255.478 111.802Z" fill="#006AFF"></path><path d="M200.777 139.939C211.268 139.939 219.77 131.439 219.77 120.951C219.77 110.463 211.268 101.963 200.777 101.963C190.286 101.963 181.783 110.463 181.783 120.951C181.783 131.439 190.286 139.939 200.777 139.939Z" fill="#006AFF"></path><path d="M146.087 168.087C156.577 168.087 165.08 159.587 165.08 149.099C165.08 138.611 156.577 130.11 146.087 130.11C135.596 130.11 127.093 138.611 127.093 149.099C127.093 159.587 135.596 168.087 146.087 168.087Z" fill="#006AFF"></path><path d="M91.3855 196.235C101.876 196.235 110.379 187.734 110.379 177.246C110.379 166.758 101.876 158.258 91.3855 158.258C80.8947 158.258 72.3918 166.758 72.3918 177.246C72.3918 187.734 80.8947 196.235 91.3855 196.235Z" fill="#006AFF"></path></g><path d="M218.128 6.91285C224.6 6.91285 230.596 8.52221 235.739 11.9137C257.552 26.3008 255.856 67.3234 231.957 103.539C223.152 116.879 211.549 127.021 199.686 134.042C204.872 139.993 208.016 147.77 208.016 156.292C208.016 175.021 192.825 190.207 174.091 190.207C165.458 190.207 157.593 186.978 151.607 181.675C148.701 184.666 145.201 187.172 141.16 188.976C136.655 190.996 131.944 191.946 127.309 191.946C114.355 191.946 101.973 184.483 96.3337 171.9C92.8548 164.134 92.5415 155.741 94.832 148.191C81.1324 146.625 66.3956 142.121 52.9013 133.545C16.2754 110.269 -2.05913 73.5232 11.9646 51.4782C18.7279 40.8499 31.7685 35.5789 47.5749 35.5789C64.5481 35.5789 84.6977 41.66 103.67 53.714C118.979 63.4458 130.388 76.6555 137.757 89.8653C139.982 77.174 144.822 63.7806 152.958 51.4458C171.217 23.7734 197.158 6.91285 218.117 6.91285M218.128 0.432198C194.284 0.432198 166.582 19.0533 147.556 47.8814C142.284 55.8634 138.059 64.6987 135.066 73.9552C128.562 65.4116 119.498 56.0902 107.159 48.2486C87.7336 35.903 66.5793 29.0983 47.5857 29.0983C28.8514 29.0983 14.2551 35.8166 6.50853 48.0002C-1.54052 60.6591 -1.12997 77.3252 7.65376 94.9417C15.9081 111.478 30.7421 127.129 49.4332 139.01C60.7018 146.171 73.6127 151.161 87.1395 153.602C86.3508 160.71 87.4636 167.946 90.4239 174.546C96.9279 189.052 111.405 198.427 127.32 198.427C133.024 198.427 138.578 197.239 143.828 194.884C146.724 193.588 149.436 191.968 151.932 190.045C158.479 194.355 166.182 196.677 174.112 196.677C196.39 196.677 214.52 178.553 214.52 156.281C214.52 149.044 212.575 141.991 208.945 135.824C220.278 128.069 230.024 118.24 237.381 107.093C249.579 88.6123 256.72 68.2523 257.477 49.7932C258.287 30.1244 251.837 14.7436 239.315 6.49161C233.2 2.4628 226.08 0.421387 218.128 0.421387V0.432198Z" fill="white"></path></svg>
